<?xml version="1.0" encoding="UTF-8"?>
<svg xmlns="http://www.w3.org/2000/svg" xmlns:xlink="http://www.w3.org/1999/xlink" width="1000pt" height="600.999991pt" viewBox="0 0 375 374.999991" version="1.2">
<defs>
<clipPath id="clip1">
  <path d="M 103.925781 112.5 L 158 112.5 L 158 175 L 103.925781 175 Z M 103.925781 112.5 "/>
</clipPath>
<clipPath id="clip2">
  <path d="M 103.925781 129 L 158 129 L 158 175 L 103.925781 175 Z M 103.925781 129 "/>
</clipPath>
<clipPath id="clip3">
  <path d="M 157 112.5 L 211 112.5 L 211 175 L 157 175 Z M 157 112.5 "/>
</clipPath>
<clipPath id="clip4">
  <path d="M 103.925781 175 L 158 175 L 158 244 L 103.925781 244 Z M 103.925781 175 "/>
</clipPath>
<clipPath id="clip5">
  <path d="M 157 112.5 L 203 112.5 L 203 175 L 157 175 Z M 157 112.5 "/>
</clipPath>
<clipPath id="clip6">
  <path d="M 103.925781 175 L 158 175 L 158 216 L 103.925781 216 Z M 103.925781 175 "/>
</clipPath>
<clipPath id="clip7">
  <path d="M 203 237 L 253.925781 237 L 253.925781 262.5 L 203 262.5 Z M 203 237 "/>
</clipPath>
<clipPath id="clip8">
  <path d="M 203 237 L 229 237 L 229 262.5 L 203 262.5 Z M 203 237 "/>
</clipPath>
</defs>
<g id="surface1">
<g clip-path="url(#clip1)" clip-rule="nonzero">
<path style=" stroke:none;fill-rule:nonzero;fill:rgb(47.059631%,56.469727%,61.178589%);fill-opacity:1;" d="M 157.050781 112.5 L 157.050781 175 L 103.925781 175 L 103.925781 134.375 C 103.925781 133.0625 104.738281 131.875 105.925781 131.4375 L 155.925781 112.6875 Z M 157.050781 112.5 "/>
</g>
<path style=" stroke:none;fill-rule:nonzero;fill:rgb(47.059631%,56.469727%,61.178589%);fill-opacity:1;" d="M 210.175781 175 C 209.925781 231.625 158.238281 243.5625 157.738281 243.6875 L 157.050781 243.75 L 157.050781 175 Z M 210.175781 175 "/>
<g clip-path="url(#clip2)" clip-rule="nonzero">
<path style=" stroke:none;fill-rule:nonzero;fill:rgb(40.779114%,49.01886%,53.329468%);fill-opacity:1;" d="M 111.550781 129.332031 L 105.925781 131.4375 C 104.738281 131.875 103.925781 133.0625 103.925781 134.375 L 103.925781 175 L 157.050781 175 L 157.050781 174.832031 Z M 111.550781 129.332031 "/>
</g>
<path style=" stroke:none;fill-rule:nonzero;fill:rgb(40.779114%,49.01886%,53.329468%);fill-opacity:1;" d="M 157.21875 175 L 157.050781 175 L 157.050781 243.75 L 157.738281 243.6875 C 158.082031 243.601562 182.714844 237.90625 198.09375 215.867188 Z M 157.21875 175 "/>
<g clip-path="url(#clip3)" clip-rule="nonzero">
<path style=" stroke:none;fill-rule:nonzero;fill:rgb(81.17981%,84.709167%,86.268616%);fill-opacity:1;" d="M 210.175781 134.375 L 210.175781 175 L 157.050781 175 L 157.050781 112.5 L 158.175781 112.6875 L 208.175781 131.4375 C 209.363281 131.875 210.175781 133.0625 210.175781 134.375 Z M 210.175781 134.375 "/>
</g>
<g clip-path="url(#clip4)" clip-rule="nonzero">
<path style=" stroke:none;fill-rule:nonzero;fill:rgb(81.17981%,84.709167%,86.268616%);fill-opacity:1;" d="M 157.050781 175 L 157.050781 243.75 L 156.363281 243.6875 C 155.863281 243.5625 104.175781 231.625 103.925781 175 Z M 157.050781 175 "/>
</g>
<g clip-path="url(#clip5)" clip-rule="nonzero">
<path style=" stroke:none;fill-rule:nonzero;fill:rgb(70.588684%,73.728943%,75.289917%);fill-opacity:1;" d="M 157.050781 112.5 L 157.050781 175 L 157.058594 175 L 202.683594 129.375 L 158.175781 112.6875 Z M 157.050781 112.5 "/>
</g>
<g clip-path="url(#clip6)" clip-rule="nonzero">
<path style=" stroke:none;fill-rule:nonzero;fill:rgb(70.588684%,73.728943%,75.289917%);fill-opacity:1;" d="M 157.050781 175 L 103.925781 175 C 104.007812 192.679688 109.101562 206.007812 116.082031 215.976562 Z M 157.050781 175 "/>
</g>
<path style=" stroke:none;fill-rule:nonzero;fill:rgb(12.939453%,58.81958%,95.289612%);fill-opacity:1;" d="M 228.925781 231.25 C 222.03125 231.25 216.425781 225.648438 216.425781 218.75 C 216.425781 211.851562 222.03125 206.25 228.925781 206.25 C 235.820312 206.25 241.425781 211.851562 241.425781 218.75 C 241.425781 225.648438 235.820312 231.25 228.925781 231.25 Z M 228.925781 231.25 "/>
<g clip-path="url(#clip7)" clip-rule="nonzero">
<path style=" stroke:none;fill-rule:nonzero;fill:rgb(12.939453%,58.81958%,95.289612%);fill-opacity:1;" d="M 249.238281 262.5 L 208.613281 262.5 C 206.027344 262.5 203.925781 260.398438 203.925781 257.8125 L 203.925781 254.6875 C 203.925781 245.207031 211.632812 237.5 221.113281 237.5 L 236.738281 237.5 C 246.21875 237.5 253.925781 245.207031 253.925781 254.6875 L 253.925781 257.8125 C 253.925781 260.398438 251.828125 262.5 249.238281 262.5 Z M 249.238281 262.5 "/>
</g>
<path style=" stroke:none;fill-rule:nonzero;fill:rgb(11.369324%,51.368713%,83.139038%);fill-opacity:1;" d="M 228.925781 206.25 C 222.03125 206.25 216.425781 211.851562 216.425781 218.75 C 216.425781 225.648438 222.03125 231.25 228.925781 231.25 Z M 228.925781 206.25 "/>
<g clip-path="url(#clip8)" clip-rule="nonzero">
<path style=" stroke:none;fill-rule:nonzero;fill:rgb(11.369324%,51.368713%,83.139038%);fill-opacity:1;" d="M 228.925781 237.5 L 221.113281 237.5 C 211.632812 237.5 203.925781 245.207031 203.925781 254.6875 L 203.925781 257.8125 C 203.925781 260.398438 206.027344 262.5 208.613281 262.5 L 228.925781 262.5 Z M 228.925781 237.5 "/>
</g>
</g>
</svg>
