<svg height="180pt" viewBox="1 -17 511.99993 511" width="511pt" xmlns="http://www.w3.org/2000/svg"><path d="m344.289062 477.148438c-43.871093 0-79.441406-35.566407-79.441406-79.441407s35.570313-79.441406 79.441406-79.441406c43.875 0 79.441407 35.566406 79.441407 79.441406-.046875 43.855469-35.585938 79.394531-79.441407 79.441407zm0-141.230469c-34.121093 0-61.785156 27.664062-61.785156 61.789062s27.664063 61.785157 61.785156 61.785157c34.125 0 61.789063-27.660157 61.789063-61.785157-.039063-34.109375-27.679687-61.75-61.789063-61.789062zm0 0" fill="#4fb86a"/><path d="m432.558594 415.359375c-43.875 0-79.441406-35.566406-79.441406-79.441406 0-43.871094 35.566406-79.441407 79.441406-79.441407s79.441406 35.570313 79.441406 79.441407c-.046875 43.855469-35.585938 79.394531-79.441406 79.441406zm0-141.226563c-34.125 0-61.789063 27.660157-61.789063 61.785157s27.664063 61.789062 61.789063 61.789062 61.789062-27.664062 61.789062-61.789062c-.039062-34.105469-27.679687-61.746094-61.789062-61.785157zm0 0" fill="#e3472c"/><path d="m167.753906 477.148438c-43.875 0-79.441406-35.566407-79.441406-79.441407s35.566406-79.441406 79.441406-79.441406 79.441406 35.566406 79.441406 79.441406c-.046874 43.855469-35.585937 79.394531-79.441406 79.441407zm0-141.230469c-34.125 0-61.789062 27.664062-61.789062 61.789062s27.664062 61.785157 61.789062 61.785157 61.789063-27.660157 61.789063-61.785157c-.039063-34.109375-27.679688-61.75-61.789063-61.789062zm0 0" fill="#ffbf41"/><path d="m79.484375 415.359375c-43.871094 0-79.4375-35.566406-79.4375-79.441406 0-43.871094 35.566406-79.441407 79.4375-79.441407 43.875 0 79.441406 35.570313 79.441406 79.441407-.046875 43.855469-35.585937 79.394531-79.441406 79.441406zm0-141.226563c-34.121094 0-61.785156 27.660157-61.785156 61.785157s27.664062 61.789062 61.785156 61.789062c34.125 0 61.789063-27.664062 61.789063-61.789062-.039063-34.105469-27.679688-61.746094-61.789063-61.785157zm0 0" fill="#2276bb"/><path d="m256.023438 415.359375c-43.875 0-79.441407-35.566406-79.441407-79.441406 0-43.871094 35.566407-79.441407 79.441407-79.441407s79.441406 35.570313 79.441406 79.441407c-.050782 43.855469-35.589844 79.394531-79.441406 79.441406zm0-141.226563c-34.125 0-61.789063 27.660157-61.789063 61.785157s27.664063 61.789062 61.789063 61.789062 61.785156-27.664062 61.785156-61.789062c-.039063-34.105469-27.675782-61.746094-61.785156-61.785157zm0 0" fill="#0f2537"/><path d="m106.285156 391.527344c-.210937 2.054687-.320312 4.117187-.320312 6.179687.003906 4.214844.433594 8.421875 1.289062 12.550781 30.789063-11.503906 51.320313-40.761718 51.671875-73.625-6.222656.894532-12.273437 2.742188-17.933593 5.480469-2.199219 21.382813-15.339844 40.089844-34.707032 49.414063zm0 0" fill="#2276bb"/><path d="m88.3125 396.992188c-2.921875.449218-5.871094.691406-8.828125.714843-34.121094 0-61.785156-27.664062-61.785156-61.789062s27.660156-61.785157 61.785156-61.785157c29.289063 0 54.550781 20.558594 60.5 49.234376 5.523437-2.070313 11.261719-3.511719 17.109375-4.300782-9.308594-42.875-51.609375-70.089844-94.484375-60.78125-42.878906 9.304688-70.089844 51.609375-60.785156 94.484375 7.929687 36.539063 40.269531 62.605469 77.660156 62.589844 3.570313-.023437 7.132813-.292969 10.664063-.800781-1.207032-5.539063-1.824219-11.1875-1.835938-16.851563 0-.238281 0-.46875 0-.714843zm0 0" fill="#2276bb"/><path d="m167.753906 459.492188c-34.125 0-61.789062-27.660157-61.789062-61.785157 0-2.0625.109375-4.125.320312-6.179687 2.1875-21.378906 15.3125-40.09375 34.671875-49.429688.210938-2.050781.316407-4.113281.316407-6.179687 0-4.214844-.433594-8.421875-1.289063-12.550781-30.785156 11.503906-51.320313 40.761718-51.671875 73.625v.714843c.070312 43.875 35.695312 79.382813 79.570312 79.3125 37.28125-.0625 69.507813-26.039062 77.476563-62.460937-5.84375-.789063-11.582031-2.230469-17.105469-4.300782-5.988281 28.652344-31.226562 49.195313-60.5 49.234376zm0 0" fill="#ffbf41"/><path d="m195.523438 323.367188c-12.226563-4.71875-25.464844-6.199219-38.433594-4.300782 1.210937 5.539063 1.824218 11.1875 1.835937 16.851563v.714843c12.167969-1.765624 24.585938.144532 35.664063 5.480469 19.355468 9.335938 32.484375 28.050781 34.671875 49.433594 5.660156 2.726563 11.710937 4.5625 17.933593 5.445313-.351562-32.863282-20.886718-62.121094-51.671874-73.625zm0 0" fill="#ffbf41"/><g fill="#0f2537"><path d="m264.847656 396.992188c-12.164062 1.765624-24.582031-.144532-35.660156-5.480469-19.359375-9.335938-32.484375-28.050781-34.671875-49.433594-5.660156-2.726563-11.710937-4.5625-17.933594-5.445313.394531 39.4375 29.660157 72.613282 68.742188 77.925782 7.066406 1.070312 14.257812 1.070312 21.324219 0-1.195313-5.539063-1.800782-11.1875-1.800782-16.851563 0-.238281 0-.46875 0-.714843zm0 0"/><path d="m282.820312 391.527344c-.210937 2.054687-.316406 4.117187-.316406 6.179687 0 4.214844.433594 8.421875 1.289063 12.550781 30.785156-11.503906 51.320312-40.761718 51.671875-73.625-6.226563.894532-12.277344 2.742188-17.9375 5.480469-2.199219 21.382813-15.339844 40.089844-34.707032 49.414063zm0 0"/><path d="m256.023438 256.476562c-37.355469.058594-69.640626 26.097657-77.605469 62.59375 5.84375.785157 11.582031 2.230469 17.105469 4.296876 6.933593-33.414063 39.640624-54.878907 73.054687-47.945313 24.105469 5.003906 42.941406 23.839844 47.945313 47.945313 5.523437-2.066407 11.261718-3.507813 17.105468-4.296876-7.96875-36.496093-40.25-62.535156-77.605468-62.59375zm0 0"/></g><path d="m432.558594 256.476562c-37.355469.058594-69.640625 26.097657-77.605469 62.59375 5.84375.785157 11.582031 2.230469 17.105469 4.296876 6.933594-33.414063 39.640625-54.878907 73.050781-47.949219 33.414063 6.933593 54.882813 39.640625 47.949219 73.050781-5.949219 28.675781-31.214844 49.238281-60.5 49.238281-9.273438-.097656-18.417969-2.207031-26.796875-6.179687-19.359375-9.335938-32.484375-28.050782-34.671875-49.429688-5.675782-2.734375-11.734375-4.578125-17.972656-5.464844.394531 39.4375 29.664062 72.613282 68.742187 77.925782 3.546875.507812 7.121094.777344 10.699219.800781 43.875 0 79.441406-35.566406 79.441406-79.441406 0-43.871094-35.566406-79.441407-79.441406-79.441407zm0 0" fill="#e3472c"/><path d="m372.058594 323.367188c-12.226563-4.71875-25.464844-6.199219-38.429688-4.300782 1.207032 5.539063 1.824219 11.1875 1.835938 16.851563v.714843c12.167968-1.765624 24.582031.144532 35.660156 5.480469 19.359375 9.335938 32.484375 28.050781 34.671875 49.433594 5.664063 2.726563 11.710937 4.5625 17.9375 5.445313-.355469-32.863282-20.886719-62.121094-51.675781-73.625zm0 0" fill="#4fb86a"/><path d="m404.789062 410.257812c-6.933593 33.414063-39.640624 54.878907-73.050781 47.945313-28.675781-5.949219-49.234375-31.210937-49.234375-60.496094-.003906-2.0625.105469-4.125.316406-6.179687 2.1875-21.378906 15.3125-40.09375 34.671876-49.429688.210937-2.050781.316406-4.113281.316406-6.179687 0-4.214844-.433594-8.421875-1.289063-12.550781-30.785156 11.503906-51.320312 40.761718-51.671875 73.625v.714843c.074219 43.875 35.699219 79.382813 79.570313 79.3125 37.285156-.0625 69.507812-26.039062 77.476562-62.460937-5.84375-.789063-11.582031-2.230469-17.105469-4.300782zm0 0" fill="#4fb86a"/><path d="m291.328125 159.382812h-70.613281c-29.25 0-52.960938-23.710937-52.960938-52.960937 0-24.375 19.757813-44.132813 44.132813-44.132813s44.136719-19.761718 44.136719-44.136718v-17.652344c48.75 0 88.265624 39.519531 88.265624 88.269531v17.652344c0 29.25-23.710937 52.960937-52.960937 52.960937zm0 0" fill="#ffbf41"/><path d="m203.0625 194.691406h105.921875c9.75 0 17.652344 7.902344 17.652344 17.652344s-7.902344 17.652344-17.652344 17.652344h-105.921875c-9.75 0-17.65625-7.902344-17.65625-17.652344s7.90625-17.652344 17.65625-17.652344zm0 0" fill="#d1e3ee"/></svg>